<svg xmlns="http://www.w3.org/2000/svg" version="1.1" viewBox="-5.0 -10.0 110 110">
    <path fill="white"
        d="m50 5c24.852 0 45 20.148 45 45s-20.148 45-45 45-45-20.148-45-45 20.148-45 45-45zm-3 27.5v14.5h-14.5c-3.9492 0-3.9492 6 0 6h14.5v14.5c0 3.9492 6 3.9492 6 0v-14.5h14.5c3.9492 0 3.9492-6 0-6h-14.5v-14.5c0-3.9492-6-3.9492-6 0zm30.578-10.078c-15.23-15.23-39.926-15.23-55.152 0-15.23 15.23-15.23 39.926 0 55.152 15.23 15.23 39.926 15.23 55.152 0 15.23-15.227 15.23-39.922 0-55.152z"
        fill-rule="evenodd" />
</svg>